<svg height="512pt" viewBox="-81 0 511 512" width="512pt" xmlns="http://www.w3.org/2000/svg"><path d="m190.0625 164.488281v347.511719h44.832031l16.667969-347.511719zm0 0"/><path d="m160.0625 164.488281h-61.5l16.667969 347.511719h44.832031zm0 0"/><path d="m281.59375 164.488281-16.667969 347.511719h44.761719l33.335938-347.511719zm0 0"/><path d="m85.199219 512-16.667969-347.511719h-61.433594l33.335938 347.511719zm0 0"/><path d="m347.070312 114.933594c-3.71875-8.984375-11.160156-15.917969-20.402343-19.027344l-10.976563-3.691406.792969-11.550782c.664063-9.730468-2.898437-19.257812-9.773437-26.132812s-16.398438-10.433594-26.132813-9.769531l-11.550781.789062-3.6875-10.972656c-3.109375-9.246094-10.046875-16.683594-19.03125-20.40625-8.980469-3.71875-19.144532-3.367187-27.882813.972656l-10.367187 5.152344-7.609375-8.726563c-6.410157-7.351562-15.664063-11.570312-25.386719-11.570312s-18.976562 4.21875-25.390625 11.570312l-7.605469 8.726563-10.371094-5.152344c-8.734374-4.335937-18.898437-4.691406-27.882812-.972656-8.984375 3.722656-15.917969 11.160156-19.027344 20.40625l-3.691406 10.972656-11.550781-.789062c-9.722657-.664063-19.253907 2.894531-26.128907 9.769531-6.878906 6.875-10.4375 16.402344-9.773437 26.132812l.792969 11.550782-10.976563 3.691406c-9.246093 3.109375-16.683593 10.042969-20.40625 19.027344-2.582031 6.242187-3.195312 13.050781-1.878906 19.554687h347.78125c1.316406-6.503906.703125-13.3125-1.882813-19.554687zm0 0"/></svg>